<mxfile host="app.diagrams.net" modified="2021-07-15T17:19:28.686Z" agent="5.0 (Windows NT 10.0; Win64; x64) AppleWebKit/537.36 (KHTML, like Gecko) Chrome/91.0.4472.124 Safari/537.36" etag="Et6A6LK5wnFeG_4VniRI" version="14.8.6" type="github">
  <diagram id="pIRpALu3X4-BsKBxWYUz" name="Page-1">
    <mxGraphModel dx="1328" dy="710" grid="1" gridSize="10" guides="1" tooltips="1" connect="1" arrows="1" fold="1" page="1" pageScale="1" pageWidth="1100" pageHeight="850" math="0" shadow="0">
      <root>
        <mxCell id="0" />
        <mxCell id="1" parent="0" />
        <mxCell id="83AmdUt0ADGtwM5-1m7F-5" style="edgeStyle=orthogonalEdgeStyle;rounded=0;orthogonalLoop=1;jettySize=auto;html=1;" parent="1" source="AVrMXiXkNaU7DZrsUjue-19" target="83AmdUt0ADGtwM5-1m7F-4" edge="1">
          <mxGeometry relative="1" as="geometry" />
        </mxCell>
        <mxCell id="AVrMXiXkNaU7DZrsUjue-19" value="" style="strokeWidth=2;outlineConnect=0;dashed=0;align=center;fontSize=8;verticalLabelPosition=bottom;verticalAlign=top;shape=mxgraph.eip.message_store;fillColor=#c0f5a9" parent="1" vertex="1">
          <mxGeometry x="190" y="190" width="150" height="90" as="geometry" />
        </mxCell>
        <mxCell id="83AmdUt0ADGtwM5-1m7F-12" style="edgeStyle=orthogonalEdgeStyle;rounded=0;orthogonalLoop=1;jettySize=auto;html=1;" parent="1" source="AVrMXiXkNaU7DZrsUjue-20" target="83AmdUt0ADGtwM5-1m7F-10" edge="1">
          <mxGeometry relative="1" as="geometry" />
        </mxCell>
        <mxCell id="AVrMXiXkNaU7DZrsUjue-20" value="" style="strokeWidth=2;outlineConnect=0;dashed=0;align=center;fontSize=8;verticalLabelPosition=bottom;verticalAlign=top;shape=mxgraph.eip.message_store;fillColor=#c0f5a9" parent="1" vertex="1">
          <mxGeometry x="190" y="360" width="150" height="90" as="geometry" />
        </mxCell>
        <mxCell id="AVrMXiXkNaU7DZrsUjue-22" value="Pre-Data DB&lt;br&gt;(Omni)" style="text;html=1;strokeColor=none;fillColor=none;align=center;verticalAlign=middle;whiteSpace=wrap;rounded=0;" parent="1" vertex="1">
          <mxGeometry x="220" y="290" width="90" height="20" as="geometry" />
        </mxCell>
        <mxCell id="AVrMXiXkNaU7DZrsUjue-23" value="Map Quantity" style="text;html=1;strokeColor=none;fillColor=none;align=center;verticalAlign=middle;whiteSpace=wrap;rounded=0;" parent="1" vertex="1">
          <mxGeometry x="535" y="290" width="100" height="20" as="geometry" />
        </mxCell>
        <mxCell id="AVrMXiXkNaU7DZrsUjue-24" value="&lt;h1&gt;Process PB Response (Map quantity with PB Request)&lt;/h1&gt;" style="text;html=1;strokeColor=none;fillColor=none;align=center;verticalAlign=middle;whiteSpace=wrap;rounded=0;" parent="1" vertex="1">
          <mxGeometry x="197.5" y="100" width="730" height="20" as="geometry" />
        </mxCell>
        <mxCell id="_ervjC3GWcdWoxRIWC9f-10" value="" style="strokeWidth=2;outlineConnect=0;dashed=0;align=center;fontSize=8;verticalLabelPosition=bottom;verticalAlign=top;shape=mxgraph.eip.message_store;fillColor=#c0f5a9" parent="1" vertex="1">
          <mxGeometry x="830" y="360" width="150" height="90" as="geometry" />
        </mxCell>
        <mxCell id="_ervjC3GWcdWoxRIWC9f-19" value="Error DB&lt;br&gt;(Unmapped PB Request)" style="text;html=1;strokeColor=none;fillColor=none;align=center;verticalAlign=middle;whiteSpace=wrap;rounded=0;" parent="1" vertex="1">
          <mxGeometry x="830" y="460" width="160" height="20" as="geometry" />
        </mxCell>
        <mxCell id="e2qt1UtbH4zja7K99yF6-5" style="edgeStyle=orthogonalEdgeStyle;rounded=0;orthogonalLoop=1;jettySize=auto;html=1;" parent="1" source="e2qt1UtbH4zja7K99yF6-2" target="e2qt1UtbH4zja7K99yF6-4" edge="1">
          <mxGeometry relative="1" as="geometry" />
        </mxCell>
        <mxCell id="e2qt1UtbH4zja7K99yF6-2" value="" style="strokeWidth=2;outlineConnect=0;dashed=0;align=center;fontSize=8;fillColor=#c0f5a9;verticalLabelPosition=bottom;verticalAlign=top;shape=mxgraph.eip.routing_slip;" parent="1" vertex="1">
          <mxGeometry x="330" y="680" width="150" height="90" as="geometry" />
        </mxCell>
        <mxCell id="e2qt1UtbH4zja7K99yF6-4" value="" style="strokeWidth=2;outlineConnect=0;dashed=0;align=center;fontSize=8;verticalLabelPosition=bottom;verticalAlign=top;shape=mxgraph.eip.message_store;fillColor=#c0f5a9" parent="1" vertex="1">
          <mxGeometry x="690" y="680" width="150" height="90" as="geometry" />
        </mxCell>
        <mxCell id="e2qt1UtbH4zja7K99yF6-6" value="Status DB" style="text;html=1;strokeColor=none;fillColor=none;align=center;verticalAlign=middle;whiteSpace=wrap;rounded=0;" parent="1" vertex="1">
          <mxGeometry x="715" y="780" width="100" height="20" as="geometry" />
        </mxCell>
        <mxCell id="e2qt1UtbH4zja7K99yF6-7" value="Metrics" style="text;html=1;strokeColor=none;fillColor=none;align=center;verticalAlign=middle;whiteSpace=wrap;rounded=0;" parent="1" vertex="1">
          <mxGeometry x="355" y="780" width="100" height="20" as="geometry" />
        </mxCell>
        <mxCell id="83AmdUt0ADGtwM5-1m7F-6" style="edgeStyle=orthogonalEdgeStyle;rounded=0;orthogonalLoop=1;jettySize=auto;html=1;" parent="1" source="83AmdUt0ADGtwM5-1m7F-1" target="83AmdUt0ADGtwM5-1m7F-4" edge="1">
          <mxGeometry relative="1" as="geometry" />
        </mxCell>
        <mxCell id="83AmdUt0ADGtwM5-1m7F-1" value="" style="strokeWidth=2;outlineConnect=0;dashed=0;align=center;fontSize=8;verticalLabelPosition=bottom;verticalAlign=top;shape=mxgraph.eip.message_store;fillColor=#c0f5a9" parent="1" vertex="1">
          <mxGeometry x="830" y="190" width="150" height="90" as="geometry" />
        </mxCell>
        <mxCell id="83AmdUt0ADGtwM5-1m7F-2" value="PB Request&lt;br&gt;(Tables)" style="text;html=1;strokeColor=none;fillColor=none;align=center;verticalAlign=middle;whiteSpace=wrap;rounded=0;" parent="1" vertex="1">
          <mxGeometry x="860" y="290" width="100" height="20" as="geometry" />
        </mxCell>
        <mxCell id="83AmdUt0ADGtwM5-1m7F-7" style="edgeStyle=orthogonalEdgeStyle;rounded=0;orthogonalLoop=1;jettySize=auto;html=1;" parent="1" source="83AmdUt0ADGtwM5-1m7F-4" target="AVrMXiXkNaU7DZrsUjue-20" edge="1">
          <mxGeometry relative="1" as="geometry">
            <Array as="points">
              <mxPoint x="540" y="330" />
              <mxPoint x="275" y="330" />
            </Array>
          </mxGeometry>
        </mxCell>
        <mxCell id="83AmdUt0ADGtwM5-1m7F-9" style="edgeStyle=orthogonalEdgeStyle;rounded=0;orthogonalLoop=1;jettySize=auto;html=1;strokeColor=#FF0000;dashed=1;" parent="1" source="83AmdUt0ADGtwM5-1m7F-4" target="_ervjC3GWcdWoxRIWC9f-10" edge="1">
          <mxGeometry relative="1" as="geometry">
            <Array as="points">
              <mxPoint x="640" y="330" />
              <mxPoint x="880" y="330" />
            </Array>
          </mxGeometry>
        </mxCell>
        <mxCell id="83AmdUt0ADGtwM5-1m7F-4" value="" style="strokeWidth=2;outlineConnect=0;dashed=0;align=center;fontSize=8;shape=mxgraph.eip.message_translator;fillColor=#c0f5a9;verticalLabelPosition=bottom;verticalAlign=top;" parent="1" vertex="1">
          <mxGeometry x="510" y="190" width="150" height="90" as="geometry" />
        </mxCell>
        <mxCell id="83AmdUt0ADGtwM5-1m7F-8" value="PB Request Data DB&lt;br&gt;(Omni)" style="text;html=1;strokeColor=none;fillColor=none;align=center;verticalAlign=middle;whiteSpace=wrap;rounded=0;" parent="1" vertex="1">
          <mxGeometry x="205" y="460" width="135" height="20" as="geometry" />
        </mxCell>
        <mxCell id="epaFgeubSSztifche7VV-10" style="edgeStyle=orthogonalEdgeStyle;rounded=0;orthogonalLoop=1;jettySize=auto;html=1;strokeColor=#000000;" edge="1" parent="1" source="83AmdUt0ADGtwM5-1m7F-10" target="epaFgeubSSztifche7VV-4">
          <mxGeometry relative="1" as="geometry" />
        </mxCell>
        <mxCell id="83AmdUt0ADGtwM5-1m7F-10" value="" style="strokeWidth=2;outlineConnect=0;dashed=0;align=center;fontSize=8;verticalLabelPosition=bottom;verticalAlign=top;shape=mxgraph.eip.message_store;fillColor=#c0f5a9" parent="1" vertex="1">
          <mxGeometry x="190" y="535" width="150" height="90" as="geometry" />
        </mxCell>
        <mxCell id="83AmdUt0ADGtwM5-1m7F-11" value="PB Request Ready Files DB&lt;br&gt;(Omni)" style="text;html=1;strokeColor=none;fillColor=none;align=center;verticalAlign=middle;whiteSpace=wrap;rounded=0;" parent="1" vertex="1">
          <mxGeometry x="177.5" y="640" width="190" height="20" as="geometry" />
        </mxCell>
        <mxCell id="epaFgeubSSztifche7VV-12" style="edgeStyle=orthogonalEdgeStyle;rounded=0;orthogonalLoop=1;jettySize=auto;html=1;strokeColor=#000000;" edge="1" parent="1" source="epaFgeubSSztifche7VV-2" target="epaFgeubSSztifche7VV-4">
          <mxGeometry relative="1" as="geometry" />
        </mxCell>
        <mxCell id="epaFgeubSSztifche7VV-2" value="" style="pointerEvents=1;shadow=0;dashed=0;html=1;strokeColor=none;labelPosition=center;verticalLabelPosition=bottom;verticalAlign=top;outlineConnect=0;align=center;shape=mxgraph.office.concepts.folder;fillColor=#7FBA42;" vertex="1" parent="1">
          <mxGeometry x="510" y="370" width="110" height="70" as="geometry" />
        </mxCell>
        <mxCell id="epaFgeubSSztifche7VV-3" style="edgeStyle=orthogonalEdgeStyle;rounded=0;orthogonalLoop=1;jettySize=auto;html=1;" edge="1" parent="1" source="epaFgeubSSztifche7VV-4" target="epaFgeubSSztifche7VV-5">
          <mxGeometry relative="1" as="geometry" />
        </mxCell>
        <mxCell id="epaFgeubSSztifche7VV-4" value="" style="fillColor=#c0f5a9;dashed=0;outlineConnect=0;strokeWidth=2;html=1;align=center;fontSize=8;verticalLabelPosition=bottom;verticalAlign=top;shape=mxgraph.eip.selective_consumer;" vertex="1" parent="1">
          <mxGeometry x="490" y="535" width="150" height="90" as="geometry" />
        </mxCell>
        <mxCell id="epaFgeubSSztifche7VV-5" value="" style="pointerEvents=1;shadow=0;dashed=0;html=1;strokeColor=none;labelPosition=center;verticalLabelPosition=bottom;verticalAlign=top;outlineConnect=0;align=center;shape=mxgraph.office.concepts.folder;fillColor=#7FBA42;" vertex="1" parent="1">
          <mxGeometry x="800" y="545" width="110" height="70" as="geometry" />
        </mxCell>
        <mxCell id="epaFgeubSSztifche7VV-7" value="Archive Folder" style="text;html=1;strokeColor=none;fillColor=none;align=center;verticalAlign=middle;whiteSpace=wrap;rounded=0;" vertex="1" parent="1">
          <mxGeometry x="790" y="620" width="130" height="20" as="geometry" />
        </mxCell>
        <mxCell id="epaFgeubSSztifche7VV-8" value="Validate processing" style="text;html=1;strokeColor=none;fillColor=none;align=center;verticalAlign=middle;whiteSpace=wrap;rounded=0;" vertex="1" parent="1">
          <mxGeometry x="507.5" y="630" width="130" height="20" as="geometry" />
        </mxCell>
        <mxCell id="epaFgeubSSztifche7VV-6" value="Input Folder" style="text;html=1;strokeColor=none;fillColor=none;align=center;verticalAlign=middle;whiteSpace=wrap;rounded=0;" vertex="1" parent="1">
          <mxGeometry x="510" y="450" width="110" height="20" as="geometry" />
        </mxCell>
      </root>
    </mxGraphModel>
  </diagram>
</mxfile>
